<?xml version="1.0" standalone="no"?>
<!DOCTYPE svg PUBLIC "-//W3C//DTD SVG 20010904//EN"
 "http://www.w3.org/TR/2001/REC-SVG-20010904/DTD/svg10.dtd">
<svg version="1.0" xmlns="http://www.w3.org/2000/svg"
 width="700.000000pt" height="700.000000pt" viewBox="0 0 700.000000 700.000000"
 preserveAspectRatio="xMidYMid meet">
<metadata>
Created by potrace 1.14, written by Peter Selinger 2001-2017
</metadata>
<g transform="translate(0.000000,700.000000) scale(0.100000,-0.100000)"
fill="#000000" stroke="none">
<path d="M2908 6645 c-1 -1 -97 -6 -213 -10 -115 -3 -239 -8 -275 -10 -36 -2
-119 -7 -185 -10 -66 -3 -145 -8 -175 -10 -30 -2 -100 -7 -155 -10 -163 -10
-293 -20 -390 -31 -90 -10 -248 -54 -343 -96 -254 -111 -489 -334 -612 -578
-94 -189 -122 -312 -145 -645 -3 -44 -7 -109 -10 -145 -10 -128 -14 -207 -20
-330 -4 -69 -8 -154 -10 -190 -27 -462 -27 -1665 0 -2160 2 -36 6 -121 10
-190 3 -69 8 -150 10 -180 2 -30 7 -98 10 -150 3 -52 8 -117 10 -145 3 -27 7
-84 10 -125 16 -205 45 -327 120 -486 117 -252 313 -454 563 -581 111 -56 219
-94 317 -112 33 -6 69 -13 81 -15 11 -2 65 -7 120 -11 54 -3 115 -8 134 -10
19 -2 82 -7 140 -10 58 -3 125 -8 150 -10 69 -6 298 -17 660 -32 390 -16 1480
-9 1875 12 44 3 130 7 190 10 61 3 142 7 180 10 39 3 108 7 155 10 47 3 105 8
130 10 25 2 81 7 125 10 188 14 319 44 458 105 97 42 243 132 311 191 239 208
396 501 431 804 7 58 18 198 30 385 3 47 8 110 10 140 2 30 7 107 10 170 3 63
7 153 10 200 15 304 19 514 19 1055 1 523 -5 831 -19 1100 -1 33 -6 123 -9
200 -4 77 -9 160 -11 185 -3 25 -7 83 -10 130 -3 47 -8 117 -11 155 -3 39 -7
97 -9 130 -13 191 -48 327 -124 491 -58 123 -134 229 -245 340 -232 232 -486
344 -834 369 -39 3 -100 7 -134 10 -71 6 -147 11 -293 20 -55 3 -127 8 -160
10 -33 2 -127 7 -209 11 -83 3 -188 8 -235 11 -108 5 -1428 13 -1433 8z
m-1132 -1525 c53 -24 135 -102 761 -729 765 -766 749 -747 756 -868 4 -66 -14
-142 -47 -193 -31 -47 -1415 -1430 -1431 -1430 -8 0 -15 -3 -17 -8 -9 -21 -93
-41 -161 -38 -223 7 -364 219 -287 431 21 57 47 85 599 638 l576 577 -572 573
c-516 516 -575 578 -598 631 -117 265 158 536 421 416z m3682 -2383 c254 -95
290 -428 62 -572 -79 -50 -59 -48 -980 -49 -943 -2 -931 -2 -1022 55 -48 31
-83 70 -112 128 -23 44 -29 74 -28 148 0 139 99 261 237 297 32 8 295 11 922
10 781 -1 883 -3 921 -17z"/>
</g>
</svg>
